g SubMesh_0
v -0.024746552 0.061513104 -0.12960555
v 0.028119741 0.049912617 -0.13547651
v 0.026907511 0.061513104 -0.12960683
v -0.025851749 0.049912617 -0.13547519
v 0.028578516 0.037053388 -0.13753298
v -0.026191507 0.037053388 -0.13753162
v -0.026022796 0.00064915715 -0.13767092
v 0.028747227 0.0006491661 -0.13767229
v -0.024746552 0.061513104 -0.12960555
v 0.026907511 0.061513104 -0.12960683
v -0.022984093 0.070719294 -0.12049728
v 0.02506049 0.070719294 -0.12049846
v -0.020736897 0.07663003 -0.109041974
v -0.0609216 0.07663004 -0.092395574
v -0.06737072 0.070719294 -0.10211025
v -0.024746552 0.061513104 -0.12960555
v -0.07246785 0.061513104 -0.109837145
v -0.09167686 0.07663003 -0.061638154
v -0.10134191 0.070719294 -0.06813666
v -0.07246785 0.061513104 -0.109837145
v -0.10899124 0.061513104 -0.07331119
v -0.053751767 0.07866673 -0.08164404
v -0.08094211 0.07866673 -0.054451756
v -0.10832047 0.07663003 -0.021452205
v -0.09565655 0.07866673 -0.01892384
v -0.11972589 0.0707193 -0.023748664
v -0.10899124 0.061513104 -0.07331119
v -0.12875636 0.061513104 -0.025588423
v -0.10831863 0.07663003 0.022044258
v -0.09565491 0.07866673 0.019530857
v -0.119723834 0.070719294 0.024296045
v -0.12875636 0.061513104 -0.025588423
v -0.12875415 0.061513104 0.026065797
v 0.09766787 0.07866673 -0.018928604
v 0.08295042 0.07866673 -0.0544558
v 0.0976695 0.07866673 0.019526092
v -0.0916716 0.07663003 0.062229384
v -0.08093745 0.07866673 0.05505805
v 0.08295508 0.07866673 0.055054013
v -0.101336114 0.070719294 0.06868316
v -0.12875415 0.061513104 0.026065797
v -0.10898499 0.061513104 0.0737876
v 0.1103523 0.07663003 0.022038866
v 0.11035047 0.07663003 -0.021457596
v 0.0937087 0.07663003 0.062224817
v -0.05374482 0.07866673 0.082248986
v -0.060913738 0.07663003 0.09298529
v 0.05576474 0.07866673 0.08224629
v 0.06295345 0.07663003 0.092982225
v -0.06736204 0.070719294 0.10265504
v -0.10898499 0.061513104 0.0737876
v -0.072458506 0.061513104 0.110311754
v 0.103428535 0.0707193 0.06867811
v 0.06945736 0.0707193 0.102651685
v 0.12181251 0.070719294 0.02429009
v 0.07463981 0.061513104 0.11030811
v 0.11116319 0.061513104 0.073782176
v 0.11116319 0.061513104 0.073782176
v 0.1309283 0.061513104 0.026059398
v 0.12181048 0.0707193 -0.023754617
v 0.1309283 0.061513104 0.026059398
v 0.13092612 0.061513104 -0.025594823
v 0.093703434 0.07663003 -0.061642714
v 0.10342274 0.0707193 -0.068141714
v 0.13092612 0.061513104 -0.025594823
v 0.11115695 0.061513104 -0.07331662
v 0.05575779 0.07866673 -0.08164674
v 0.06294559 0.07663003 -0.09239863
v -0.018224936 0.07866673 -0.096360914
v 0.020229712 0.07866673 -0.096361876
v 0.022759482 0.07663003 -0.10904305
v 0.06944868 0.0707193 -0.10211362
v 0.11115695 0.061513104 -0.07331662
v 0.07463048 0.061513104 -0.10984078
v 0.07463048 0.061513104 -0.10984078
v 0.026907511 0.061513104 -0.12960683
v 0.026907511 0.061513104 -0.12960683
v 0.07798378 0.049912617 -0.11482369
v 0.07463048 0.061513104 -0.10984078
v 0.028119741 0.049912617 -0.13547651
v 0.07918031 0.037053395 -0.11657458
v 0.028578516 0.037053388 -0.13753298
v 0.028747227 0.0006491661 -0.13767229
v 0.079349026 0.00064915715 -0.11671389
v 0.118078895 0.00064915715 -0.077986464
v 0.117910184 0.037053388 -0.07784717
v 0.13904062 0.0006491661 -0.027385887
v 0.11614899 0.049912617 -0.076660894
v 0.07463048 0.061513104 -0.10984078
v 0.11115695 0.061513104 -0.07331662
v 0.13887191 0.037053388 -0.027246594
v 0.13904294 0.0006491661 0.027384317
v 0.13680507 0.049912617 -0.026798075
v 0.11115695 0.061513104 -0.07331662
v 0.13092612 0.061513104 -0.025594823
v 0.13887423 0.037053388 0.027523605
v 0.11808552 0.00064915715 0.077985875
v 0.13680738 0.049912617 0.027173584
v 0.13092612 0.061513104 -0.025594823
v 0.1309283 0.061513104 0.026059398
v 0.11791681 0.037053388 0.078125186
v 0.0793589 0.00064915715 0.11671524
v 0.116155505 0.049912617 0.07703742
v 0.1309283 0.061513104 0.026059398
v 0.11116319 0.061513104 0.073782176
v 0.079190195 0.037053388 0.11685453
v 0.028758895 0.00064915715 0.13767612
v 0.07799352 0.049912617 0.11520209
v 0.11116319 0.061513104 0.073782176
v 0.07463981 0.061513104 0.11030811
v 0.028590182 0.037053395 0.13781542
v -0.026011128 0.00064915715 0.13767748
v 0.028131237 0.049912617 0.13585739
v 0.07463981 0.061513104 0.11030811
v 0.026918516 0.061513104 0.13007651
v -0.026179837 0.037053388 0.13781677
v -0.076612934 0.00064915715 0.116719075
v -0.025840253 0.049912617 0.13585871
v 0.026918516 0.061513104 0.13007651
v -0.024735544 0.061513104 0.13007778
v -0.07678164 0.037053388 0.11685837
v -0.025840253 0.049912617 0.13585871
v -0.1153428 0.0006491661 0.07799165
v -0.07570431 0.049912617 0.11520589
v -0.024735544 0.061513104 0.13007778
v -0.072458506 0.061513104 0.110311754
v -0.115511514 0.037053388 0.078130946
v -0.07570431 0.049912617 0.11520589
v -0.13630454 0.00064915715 0.027391102
v -0.11386952 0.049912617 0.07704309
v -0.072458506 0.061513104 0.110311754
v -0.10898499 0.061513104 0.0737876
v -0.13647325 0.037053388 0.027530394
v -0.11386952 0.049912617 0.07704309
v -0.13630685 0.0006491661 -0.0273791
v -0.1345256 0.049912617 0.027180277
v -0.10898499 0.061513104 0.0737876
v -0.12875415 0.061513104 0.026065797
v -0.13647558 0.037053388 -0.027239809
v -0.1345256 0.049912617 0.027180277
v -0.115349434 0.00064915715 -0.0779807
v -0.13452789 0.049912617 -0.026791388
v -0.12875415 0.061513104 0.026065797
v -0.12875636 0.061513104 -0.025588423
v -0.11551814 0.037053388 -0.07784139
v -0.13452789 0.049912617 -0.026791388
v -0.07662281 0.00064915715 -0.116710044
v -0.113876015 0.049912617 -0.07665523
v -0.12875636 0.061513104 -0.025588423
v -0.10899124 0.061513104 -0.07331119
v -0.076791525 0.037053395 -0.11657074
v -0.026022796 0.00064915715 -0.13767092
v -0.113876015 0.049912617 -0.07665523
v -0.026191507 0.037053388 -0.13753162
v -0.07571403 0.049912617 -0.11481989
v -0.10899124 0.061513104 -0.07331119
v -0.07246785 0.061513104 -0.109837145
v -0.07571403 0.049912617 -0.11481989
v -0.025851749 0.049912617 -0.13547519
v -0.07246785 0.061513104 -0.109837145
v -0.024746552 0.061513104 -0.12960555
v 0.07463981 0.061513104 0.11030811
v 0.026918516 0.061513104 0.13007651
v 0.025070723 0.0707193 0.1210387
v 0.022768743 0.07663003 0.10962861
v 0.020237908 0.07866673 0.09696316
v -0.018216744 0.07866673 0.096964106
v -0.020727634 0.07663003 0.10962968
v -0.022973854 0.070719294 0.12103987
v -0.072458506 0.061513104 0.110311754
v -0.024735544 0.061513104 0.13007778
v -0.024735544 0.061513104 0.13007778
v 0.026918516 0.061513104 0.13007651
vt 0.03036499 1
vt 0.96875 0.81591797
vt 0.96972656 1
vt 0.031021118 0.81591797
vt 0.96875 0.73339844
vt 0.03125 0.73339844
vt 0.03125 0.5
vt 0.96875 0.5
vt 0.20446777 0.4855957
vt 0.29541016 0.4855957
vt 0.20898438 0.45654297
vt 0.29101562 0.45654297
vt 0.21276855 0.43701172
vt 0.14416504 0.40844727
vt 0.13305664 0.42504883
vt 0.2019043 0.48510742
vt 0.11785889 0.4501953
vt 0.091552734 0.35595703
vt 0.07495117 0.36694336
vt 0.115600586 0.44873047
vt 0.05130005 0.38427734
vt 0.15637207 0.39013672
vt 0.10986328 0.34350586
vt 0.06304932 0.28710938
vt 0.0847168 0.28295898
vt 0.043518066 0.29101562
vt 0.049804688 0.38208008
vt 0.01499939 0.2980957
vt 0.06304932 0.21276855
vt 0.0847168 0.21716309
vt 0.043518066 0.20898438
vt 0.014480591 0.29541016
vt 0.014480591 0.20446777
vt 0.4152832 0.28295898
vt 0.39013672 0.34350586
vt 0.4152832 0.21716309
vt 0.091552734 0.14416504
vt 0.10986328 0.15637207
vt 0.39013672 0.15637207
vt 0.07495117 0.13305664
vt 0.01499939 0.2019043
vt 0.049804688 0.11785889
vt 0.43701172 0.21276855
vt 0.43701172 0.28710938
vt 0.40844727 0.14416504
vt 0.15637207 0.10986328
vt 0.14416504 0.091552734
vt 0.34350586 0.10986328
vt 0.35595703 0.091552734
vt 0.13305664 0.07495117
vt 0.05130005 0.115600586
vt 0.115600586 0.05130005
vt 0.42504883 0.13305664
vt 0.36694336 0.07495117
vt 0.45654297 0.20898438
vt 0.38427734 0.05130005
vt 0.44873047 0.115600586
vt 0.4501953 0.11785889
vt 0.48510742 0.2019043
vt 0.45654297 0.29101562
vt 0.4855957 0.20446777
vt 0.4855957 0.29541016
vt 0.40844727 0.35595703
vt 0.42504883 0.36694336
vt 0.48510742 0.2980957
vt 0.4501953 0.38208008
vt 0.34350586 0.39013672
vt 0.35595703 0.40844727
vt 0.21716309 0.4152832
vt 0.28295898 0.4152832
vt 0.28710938 0.43701172
vt 0.36694336 0.42504883
vt 0.44873047 0.38427734
vt 0.38427734 0.44873047
vt 0.38208008 0.4501953
vt 0.2980957 0.48510742
vt 0.96777344 1
vt 0.90625 0.81591797
vt 0.90722656 1
vt 0.96875 0.81591797
vt 0.90625 0.73339844
vt 0.96875 0.73339844
vt 0.96875 0.5
vt 0.90625 0.5
vt 0.84375 0.5
vt 0.84375 0.73339844
vt 0.78125 0.5
vt 0.84375 0.81591797
vt 0.90527344 1
vt 0.84472656 1
vt 0.78125 0.73339844
vt 0.71875 0.5
vt 0.78125 0.81591797
vt 0.84277344 1
vt 0.78222656 1
vt 0.71875 0.73339844
vt 0.65625 0.5
vt 0.71875 0.81591797
vt 0.78027344 1
vt 0.71972656 1
vt 0.65625 0.73339844
vt 0.59375 0.5
vt 0.65625 0.81591797
vt 0.71777344 1
vt 0.65722656 1
vt 0.59375 0.73339844
vt 0.53125 0.5
vt 0.59375 0.81591797
vt 0.65527344 1
vt 0.59472656 1
vt 0.53125 0.73339844
vt 0.46875 0.5
vt 0.53125 0.81591797
vt 0.59277344 1
vt 0.53222656 1
vt 0.46875 0.73339844
vt 0.40625 0.5
vt 0.46899414 0.81591797
vt 0.53027344 1
vt 0.46972656 1
vt 0.40625 0.73339844
vt 0.46850586 0.81591797
vt 0.34375 0.5
vt 0.40649414 0.81591797
vt 0.46777344 1
vt 0.40722656 1
vt 0.34375 0.73339844
vt 0.40600586 0.81591797
vt 0.28125 0.5
vt 0.34399414 0.81591797
vt 0.40527344 1
vt 0.34472656 1
vt 0.28125 0.73339844
vt 0.34350586 0.81591797
vt 0.21875 0.5
vt 0.28149414 0.81591797
vt 0.34277344 1
vt 0.28222656 1
vt 0.21875 0.73339844
vt 0.28100586 0.81591797
vt 0.15625 0.5
vt 0.21899414 0.81591797
vt 0.28027344 1
vt 0.21960449 1
vt 0.15625 0.73339844
vt 0.21850586 0.81591797
vt 0.09375 0.5
vt 0.15649414 0.81591797
vt 0.21789551 1
vt 0.15710449 1
vt 0.09375 0.73339844
vt 0.03125 0.5
vt 0.15600586 0.81591797
vt 0.03125 0.73339844
vt 0.09399414 0.81591797
vt 0.15539551 1
vt 0.09466553 1
vt 0.09350586 0.81591797
vt 0.031463623 0.81591797
vt 0.09283447 1
vt 0.03213501 1
vt 0.38208008 0.049804688
vt 0.2980957 0.01499939
vt 0.29101562 0.043518066
vt 0.28710938 0.06304932
vt 0.28295898 0.0847168
vt 0.21716309 0.0847168
vt 0.21276855 0.06304932
vt 0.20898438 0.043518066
vt 0.11785889 0.049804688
vt 0.2019043 0.01499939
vt 0.20446777 0.014480591
vt 0.29541016 0.014480591
vn -0.15883172 0.5820981 -0.7974549
vn 0.18539715 0.30854774 -0.9329663
vn 0.15832718 0.58301514 -0.796885
vn -0.18574981 0.30706075 -0.9333866
vn 0.19431858 0.082634225 -0.97745174
vn -0.19446415 0.08087414 -0.97756994
vn -0.19444841 0.0028513456 -0.98090863
vn 0.19559743 0.0046587167 -0.9806732
vn -0.15883172 0.5820981 -0.7974549
vn 0.15832718 0.58301514 -0.796885
vn -0.116773605 0.8018495 -0.58600456
vn 0.11636675 0.802058 -0.58580005
vn -0.063474126 0.94576454 -0.31859133
vn -0.1806441 0.9456963 -0.2702338
vn -0.33253223 0.8013001 -0.49733344
vn -0.15883172 0.5820981 -0.7974549
vn -0.45245647 0.58064836 -0.67685336
vn -0.27046007 0.9456338 -0.18063217
vn -0.49826267 0.8007357 -0.33250064
vn -0.45245647 0.58064836 -0.67685336
vn -0.6776909 0.57955265 -0.4526077
vn -0.048769508 0.99614316 -0.072940625
vn -0.07300135 0.99613875 -0.04876929
vn -0.31939778 0.9454956 -0.06342781
vn -0.086124375 0.9961373 -0.017121112
vn -0.5879696 0.80040044 -0.11683698
vn -0.6776909 0.57955265 -0.4526077
vn -0.80008394 0.5784622 -0.15889405
vn -0.3196133 0.94541085 0.06360524
vn -0.08618491 0.99613154 0.017151529
vn -0.5884936 0.7999606 0.117210336
vn -0.80008394 0.5784622 -0.15889405
vn -0.80064887 0.57754123 0.15939747
vn 0.08600322 0.996148 -0.017106034
vn 0.07294084 0.9961461 -0.048708614
vn 0.08606379 0.99614257 0.017121201
vn -0.27101958 0.94539446 0.18104596
vn -0.07306183 0.9961313 0.048829965
vn 0.072940625 0.99614316 0.048769508
vn -0.4990405 0.79983205 0.3335075
vn -0.80064887 0.57754123 0.15939747
vn -0.6788759 0.57728875 0.45372355
vn 0.31837314 0.9458417 0.06341828
vn 0.31837565 0.9458491 -0.06329669
vn 0.27001345 0.94577944 0.18053792
vn -0.048799526 0.99613285 0.07306196
vn -0.18104596 0.94539446 0.27101958
vn 0.04876929 0.99613875 0.07300135
vn 0.18063217 0.9456338 0.27046007
vn -0.3335075 0.79983205 0.4990405
vn -0.6788759 0.57728875 0.45372355
vn -0.45359564 0.57761425 0.67868453
vn 0.49718997 0.8014624 0.33235538
vn 0.33258146 0.80093044 0.49789548
vn 0.5860129 0.8018609 0.11665319
vn 0.45243514 0.58013266 0.6773098
vn 0.6762793 0.5815514 0.452155
vn 0.6762793 0.5815514 0.452155
vn 0.79724365 0.5824321 0.1586676
vn 0.5854793 0.80228734 -0.11640003
vn 0.79724365 0.5824321 0.1586676
vn 0.7968697 0.58300394 -0.15844621
vn 0.26979896 0.94588345 -0.18031362
vn 0.49636993 0.8022979 -0.33156437
vn 0.7968697 0.58300394 -0.15844621
vn 0.675278 0.58348316 -0.45116186
vn 0.048708614 0.9961461 -0.07294084
vn 0.18031362 0.94588345 -0.26979896
vn -0.017136455 0.9961422 -0.08606376
vn 0.017106034 0.996148 -0.08600322
vn 0.063235894 0.94585276 -0.31837687
vn 0.33156437 0.8022979 -0.49636993
vn 0.675278 0.58348316 -0.45116186
vn 0.45116186 0.58348316 -0.675278
vn 0.45116186 0.58348316 -0.675278
vn 0.15832718 0.58301514 -0.796885
vn 0.15832718 0.58301514 -0.796885
vn 0.5283495 0.3095874 -0.790571
vn 0.45116186 0.58348316 -0.675278
vn 0.18539715 0.30854774 -0.9329663
vn 0.5536561 0.083670914 -0.82853127
vn 0.19431858 0.082634225 -0.97745174
vn 0.19559743 0.0046587167 -0.9806732
vn 0.555592 0.0057556317 -0.83143514
vn 0.8314341 0.0059768474 -0.5555913
vn 0.82851434 0.08391332 -0.5536448
vn 0.98069364 0.0052921986 -0.19547938
vn 0.790571 0.3095874 -0.5283495
vn 0.45116186 0.58348316 -0.675278
vn 0.675278 0.58348316 -0.45116186
vn 0.9773791 0.083238326 -0.19442618
vn 0.98090553 0.0038011463 0.19444782
vn 0.9327412 0.30912316 -0.18557154
vn 0.675278 0.58348316 -0.45116186
vn 0.7968697 0.58300394 -0.15844621
vn 0.97749716 0.0817836 0.19444968
vn 0.83182365 0.0017314404 0.55503726
vn 0.9331347 0.30787095 0.18567477
vn 0.7968697 0.58300394 -0.15844621
vn 0.79724365 0.5824321 0.1586676
vn 0.82879585 0.07979053 0.55383295
vn 0.5561641 -0.000602258 0.8310722
vn 0.7915647 0.3061759 0.5288492
vn 0.79724365 0.5824321 0.1586676
vn 0.6762793 0.5815514 0.452155
vn 0.5537098 0.07745346 0.82909983
vn 0.19583356 -0.0028462408 0.98063296
vn 0.5293117 0.30420774 0.79201436
vn 0.6762793 0.5815514 0.452155
vn 0.45243514 0.58013266 0.6773098
vn 0.19457312 0.075314686 0.97799236
vn -0.19456454 -0.004653559 0.9808787
vn 0.18588977 0.30220816 0.93494123
vn 0.45243514 0.58013266 0.6773098
vn 0.15891118 0.5790128 0.7996821
vn -0.19459875 0.07355442 0.9781212
vn -0.5552544 -0.005757193 0.8316607
vn -0.18612261 0.30072534 0.93537295
vn 0.15891118 0.5790128 0.7996821
vn -0.15929583 0.5781035 0.8002632
vn -0.5542561 0.07245616 0.8291866
vn -0.18612261 0.30072534 0.93537295
vn -0.8314341 -0.0059768474 0.5555913
vn -0.5299562 0.2999015 0.79322475
vn -0.15929583 0.5781035 0.8002632
vn -0.45359564 0.57761425 0.67868453
vn -0.8291975 0.07227399 0.5542634
vn -0.5299562 0.2999015 0.79322475
vn -0.98082894 -0.005290294 0.19479878
vn -0.79320055 0.2997078 0.5301021
vn -0.45359564 0.57761425 0.67868453
vn -0.6788759 0.57728875 0.45372355
vn -0.97816485 0.07294727 0.19460744
vn -0.79320055 0.2997078 0.5301021
vn -0.9806768 -0.0037964291 -0.19559814
vn -0.9355102 0.3002812 0.18614994
vn -0.6788759 0.57728875 0.45372355
vn -0.80064887 0.57754123 0.15939747
vn -0.978087 0.07434535 -0.19446987
vn -0.9355102 0.3002812 0.18614994
vn -0.8310712 -0.0017233237 -0.5561634
vn -0.93514806 0.30154252 -0.18593088
vn -0.80064887 0.57754123 0.15939747
vn -0.80008394 0.5784622 -0.15889405
vn -0.82916594 0.076421954 -0.5537539
vn -0.93514806 0.30154252 -0.18593088
vn -0.555038 0.0006111535 -0.8318247
vn -0.7924312 0.3032038 -0.5292639
vn -0.80008394 0.5784622 -0.15889405
vn -0.6776909 0.57955265 -0.4526077
vn -0.553657 0.07866666 -0.8290208
vn -0.19444841 0.0028513456 -0.98090863
vn -0.7924312 0.3032038 -0.5292639
vn -0.19446415 0.08087414 -0.97756994
vn -0.52935886 0.3052115 -0.79159653
vn -0.6776909 0.57955265 -0.4526077
vn -0.45245647 0.58064836 -0.67685336
vn -0.52935886 0.3052115 -0.79159653
vn -0.18574981 0.30706075 -0.9333866
vn -0.45245647 0.58064836 -0.67685336
vn -0.15883172 0.5820981 -0.7974549
vn 0.45243514 0.58013266 0.6773098
vn 0.15891118 0.5790128 0.7996821
vn 0.11677677 0.80040616 0.5879738
vn 0.06342781 0.9454956 0.31939778
vn 0.017121112 0.9961373 0.086124375
vn -0.017136363 0.99613696 0.08612434
vn -0.06361021 0.94548464 0.31939408
vn -0.117104396 0.8001421 0.58826804
vn -0.45359564 0.57761425 0.67868453
vn -0.15929583 0.5781035 0.8002632
vn -0.15929583 0.5781035 0.8002632
vn 0.15891118 0.5790128 0.7996821
g SubMesh_0_0
f 3/3/3 2/2/2 1/1/1
f 1/1/1 2/2/2 4/4/4
f 2/2/2 5/5/5 4/4/4
f 4/4/4 5/5/5 6/6/6
f 6/6/6 5/5/5 7/7/7
f 7/7/7 5/5/5 8/8/8
f 11/11/11 10/10/10 9/9/9
f 12/12/12 10/10/10 11/11/11
f 13/13/13 12/12/12 11/11/11
f 13/13/13 11/11/11 14/14/14
f 14/14/14 11/11/11 15/15/15
f 11/11/11 16/16/16 15/15/15
f 15/15/15 16/16/16 17/17/17
f 14/14/14 15/15/15 18/18/18
f 18/18/18 15/15/15 19/19/19
f 15/15/15 20/20/20 19/19/19
f 19/19/19 20/20/20 21/21/21
f 22/22/22 13/13/13 14/14/14
f 23/23/23 14/14/14 18/18/18
f 22/22/22 14/14/14 23/23/23
f 18/18/18 19/19/19 24/24/24
f 23/23/23 18/18/18 25/25/25
f 25/25/25 18/18/18 24/24/24
f 24/24/24 19/19/19 26/26/26
f 19/19/19 27/27/27 26/26/26
f 26/26/26 27/27/27 28/28/28
f 24/24/24 26/26/26 29/29/29
f 25/25/25 24/24/24 30/30/30
f 30/30/30 24/24/24 29/29/29
f 29/29/29 26/26/26 31/31/31
f 26/26/26 32/32/32 31/31/31
f 31/31/31 32/32/32 33/33/33
f 25/25/25 34/34/34 23/23/23
f 23/23/23 35/35/35 22/22/22
f 34/34/34 35/35/35 23/23/23
f 30/30/30 36/36/36 25/25/25
f 36/36/36 34/34/34 25/25/25
f 29/29/29 31/31/31 37/37/37
f 30/30/30 29/29/29 38/38/38
f 38/38/38 29/29/29 37/37/37
f 39/39/39 36/36/36 30/30/30
f 38/38/38 39/39/39 30/30/30
f 37/37/37 31/31/31 40/40/40
f 31/31/31 41/41/41 40/40/40
f 40/40/40 41/41/41 42/42/42
f 36/36/36 43/43/43 34/34/34
f 34/34/34 44/44/44 35/35/35
f 34/34/34 43/43/43 44/44/44
f 39/39/39 45/45/45 36/36/36
f 36/36/36 45/45/45 43/43/43
f 38/38/38 37/37/37 46/46/46
f 37/37/37 40/40/40 47/47/47
f 46/46/46 37/37/37 47/47/47
f 48/48/48 39/39/39 38/38/38
f 46/46/46 48/48/48 38/38/38
f 39/39/39 49/49/49 45/45/45
f 48/48/48 49/49/49 39/39/39
f 47/47/47 40/40/40 50/50/50
f 40/40/40 51/51/51 50/50/50
f 50/50/50 51/51/51 52/52/52
f 45/45/45 53/53/53 43/43/43
f 49/49/49 54/54/54 45/45/45
f 45/45/45 54/54/54 53/53/53
f 43/43/43 53/53/53 55/55/55
f 43/43/43 55/55/55 44/44/44
f 54/54/54 56/56/56 53/53/53
f 53/53/53 56/56/56 57/57/57
f 53/53/53 58/58/58 55/55/55
f 55/55/55 58/58/58 59/59/59
f 44/44/44 55/55/55 60/60/60
f 55/55/55 61/61/61 60/60/60
f 60/60/60 61/61/61 62/62/62
f 44/44/44 60/60/60 63/63/63
f 35/35/35 44/44/44 63/63/63
f 63/63/63 60/60/60 64/64/64
f 60/60/60 65/65/65 64/64/64
f 64/64/64 65/65/65 66/66/66
f 35/35/35 63/63/63 67/67/67
f 35/35/35 67/67/67 22/22/22
f 63/63/63 64/64/64 68/68/68
f 67/67/67 63/63/63 68/68/68
f 22/22/22 67/67/67 69/69/69
f 69/69/69 13/13/13 22/22/22
f 70/70/70 69/69/69 67/67/67
f 67/67/67 68/68/68 70/70/70
f 69/69/69 71/71/71 13/13/13
f 70/70/70 71/71/71 69/69/69
f 70/70/70 68/68/68 71/71/71
f 71/71/71 12/12/12 13/13/13
f 68/68/68 64/64/64 72/72/72
f 68/68/68 72/72/72 71/71/71
f 71/71/71 72/72/72 12/12/12
f 64/64/64 73/73/73 72/72/72
f 72/72/72 73/73/73 74/74/74
f 72/72/72 75/75/75 12/12/12
f 12/12/12 75/75/75 76/76/76
f 79/79/79 78/78/78 77/77/77
f 77/77/77 78/78/78 80/80/80
f 78/78/78 81/81/81 80/80/80
f 80/80/80 81/81/81 82/82/82
f 81/81/81 83/83/83 82/82/82
f 84/84/84 83/83/83 81/81/81
f 84/84/84 81/81/81 85/85/85
f 85/85/85 81/81/81 86/86/86
f 78/78/78 86/86/86 81/81/81
f 85/85/85 86/86/86 87/87/87
f 88/88/88 86/86/86 78/78/78
f 89/89/89 88/88/88 78/78/78
f 90/90/90 88/88/88 89/89/89
f 87/87/87 86/86/86 91/91/91
f 88/88/88 91/91/91 86/86/86
f 87/87/87 91/91/91 92/92/92
f 93/93/93 91/91/91 88/88/88
f 94/94/94 93/93/93 88/88/88
f 95/95/95 93/93/93 94/94/94
f 92/92/92 91/91/91 96/96/96
f 93/93/93 96/96/96 91/91/91
f 92/92/92 96/96/96 97/97/97
f 98/98/98 96/96/96 93/93/93
f 99/99/99 98/98/98 93/93/93
f 100/100/100 98/98/98 99/99/99
f 97/97/97 96/96/96 101/101/101
f 98/98/98 101/101/101 96/96/96
f 97/97/97 101/101/101 102/102/102
f 103/103/103 101/101/101 98/98/98
f 104/104/104 103/103/103 98/98/98
f 105/105/105 103/103/103 104/104/104
f 102/102/102 101/101/101 106/106/106
f 103/103/103 106/106/106 101/101/101
f 102/102/102 106/106/106 107/107/107
f 108/108/108 106/106/106 103/103/103
f 109/109/109 108/108/108 103/103/103
f 110/110/110 108/108/108 109/109/109
f 107/107/107 106/106/106 111/111/111
f 108/108/108 111/111/111 106/106/106
f 107/107/107 111/111/111 112/112/112
f 113/113/113 111/111/111 108/108/108
f 114/114/114 113/113/113 108/108/108
f 115/115/115 113/113/113 114/114/114
f 112/112/112 111/111/111 116/116/116
f 113/113/113 116/116/116 111/111/111
f 112/112/112 116/116/116 117/117/117
f 118/118/118 116/116/116 113/113/113
f 119/119/119 118/118/118 113/113/113
f 120/120/120 118/118/118 119/119/119
f 117/117/117 116/116/116 121/121/121
f 122/122/122 121/121/121 116/116/116
f 117/117/117 121/121/121 123/123/123
f 124/124/124 121/121/121 122/122/122
f 125/125/125 124/124/124 122/122/122
f 126/126/126 124/124/124 125/125/125
f 123/123/123 121/121/121 127/127/127
f 128/128/128 127/127/127 121/121/121
f 123/123/123 127/127/127 129/129/129
f 130/130/130 127/127/127 128/128/128
f 131/131/131 130/130/130 128/128/128
f 132/132/132 130/130/130 131/131/131
f 129/129/129 127/127/127 133/133/133
f 134/134/134 133/133/133 127/127/127
f 129/129/129 133/133/133 135/135/135
f 136/136/136 133/133/133 134/134/134
f 137/137/137 136/136/136 134/134/134
f 138/138/138 136/136/136 137/137/137
f 135/135/135 133/133/133 139/139/139
f 140/140/140 139/139/139 133/133/133
f 135/135/135 139/139/139 141/141/141
f 142/142/142 139/139/139 140/140/140
f 143/143/143 142/142/142 140/140/140
f 144/144/144 142/142/142 143/143/143
f 141/141/141 139/139/139 145/145/145
f 146/146/146 145/145/145 139/139/139
f 141/141/141 145/145/145 147/147/147
f 148/148/148 145/145/145 146/146/146
f 149/149/149 148/148/148 146/146/146
f 150/150/150 148/148/148 149/149/149
f 147/147/147 145/145/145 151/151/151
f 147/147/147 151/151/151 152/152/152
f 153/153/153 151/151/151 145/145/145
f 152/152/152 151/151/151 154/154/154
f 155/155/155 151/151/151 153/153/153
f 156/156/156 155/155/155 153/153/153
f 157/157/157 155/155/155 156/156/156
f 158/158/158 154/154/154 151/151/151
f 159/159/159 154/154/154 158/158/158
f 160/160/160 159/159/159 158/158/158
f 161/161/161 159/159/159 160/160/160
f 54/54/54 163/163/163 162/162/162
f 164/164/164 163/163/163 54/54/54
f 49/49/49 164/164/164 54/54/54
f 165/165/165 164/164/164 49/49/49
f 48/48/48 165/165/165 49/49/49
f 166/166/166 165/165/165 48/48/48
f 166/166/166 48/48/48 46/46/46
f 167/167/167 166/166/166 46/46/46
f 46/46/46 47/47/47 167/167/167
f 167/167/167 168/168/168 166/166/166
f 167/167/167 47/47/47 168/168/168
f 166/166/166 168/168/168 165/165/165
f 47/47/47 50/50/50 168/168/168
f 168/168/168 169/169/169 165/165/165
f 168/168/168 50/50/50 169/169/169
f 165/165/165 169/169/169 164/164/164
f 50/50/50 170/170/170 169/169/169
f 169/169/169 170/170/170 171/171/171
f 169/169/169 172/172/172 164/164/164
f 164/164/164 172/172/172 173/173/173
